<svg width="60" height="60" viewBox="0 0 60 60" fill="none" xmlns="http://www.w3.org/2000/svg">
<g clip-path="url(#clip0_4006_56)">
<path d="M28.2422 12.3047C28.2422 11.3354 29.0307 10.5469 30 10.5469C30.9693 10.5469 31.7578 11.3354 31.7578 12.3047V14.1797H42.3047V12.3047C42.3047 5.51988 36.7848 0 30 0C23.2152 0 17.6953 5.51988 17.6953 12.3047V28.2422H28.2422C28.2422 26.5677 28.2422 14.3143 28.2422 12.3047Z" fill="#000D51"/>
<path d="M28.2422 42.3047V31.7578C26.5677 31.7578 14.3143 31.7578 12.3047 31.7578C11.3354 31.7578 10.5469 30.9693 10.5469 30C10.5469 29.0307 11.3354 28.2422 12.3047 28.2422H14.1797V17.6953H12.3047C5.51988 17.6953 0 23.2152 0 30C0 36.7848 5.51988 42.3047 12.3047 42.3047H28.2422Z" fill="#000D51"/>
<path d="M31.7578 47.6953C31.7578 48.6646 30.9693 49.4531 30 49.4531C29.0307 49.4531 28.2422 48.6646 28.2422 47.6953V45.8203H17.6953V47.6953C17.6953 54.4801 23.2152 60 30 60C36.7848 60 42.3047 54.4801 42.3047 47.6953C42.3047 45.4726 42.3047 33.505 42.3047 31.7578H31.7578V47.6953Z" fill="#000D51"/>
<path d="M47.6953 17.6953C45.4726 17.6953 33.505 17.6953 31.7578 17.6953V28.2422H47.6953C48.6646 28.2422 49.4531 29.0307 49.4531 30C49.4531 30.9693 48.6646 31.7578 47.6953 31.7578H45.8203V42.3047H47.6953C54.4801 42.3047 60 36.7848 60 30C60 23.2152 54.4801 17.6953 47.6953 17.6953Z" fill="#000D51"/>
</g>
<defs>
<clipPath id="clip0_4006_56">
<rect width="60" height="60" fill="white"/>
</clipPath>
</defs>
</svg>
