<svg width="60" height="60" viewBox="0 0 60 60" fill="none" xmlns="http://www.w3.org/2000/svg">
<g clip-path="url(#clip0_4006_9)">
<path d="M19.4531 14.0625C24.2992 14.0625 28.2422 18.0055 28.2422 22.8516C28.2422 23.8232 29.0284 24.6094 30 24.6094C30.9716 24.6094 31.7578 23.8232 31.7578 22.8516C31.7578 18.0055 35.7008 14.0625 40.5469 14.0625C41.5185 14.0625 42.3047 13.2763 42.3047 12.3047C42.3047 11.3331 41.5185 10.5469 40.5469 10.5469C35.7008 10.5469 31.7578 6.60387 31.7578 1.75781C31.7578 0.786211 30.9716 0 30 0C29.0284 0 28.2422 0.786211 28.2422 1.75781C28.2422 6.60387 24.2992 10.5469 19.4531 10.5469C18.4815 10.5469 17.6953 11.3331 17.6953 12.3047C17.6953 13.2763 18.4815 14.0625 19.4531 14.0625Z" fill="#000D51"/>
<path d="M24.6094 30C24.6094 29.0284 23.8232 28.2422 22.8516 28.2422C18.0055 28.2422 14.0625 24.2992 14.0625 19.4531C14.0625 18.4815 13.2763 17.6953 12.3047 17.6953C11.3331 17.6953 10.5469 18.4815 10.5469 19.4531C10.5469 24.2992 6.60387 28.2422 1.75781 28.2422C0.786211 28.2422 0 29.0284 0 30C0 30.9716 0.786211 31.7578 1.75781 31.7578C6.60387 31.7578 10.5469 35.7008 10.5469 40.5469C10.5469 41.5185 11.3331 42.3047 12.3047 42.3047C13.2763 42.3047 14.0625 41.5185 14.0625 40.5469C14.0625 35.7008 18.0055 31.7578 22.8516 31.7578C23.8232 31.7578 24.6094 30.9716 24.6094 30Z" fill="#000D51"/>
<path d="M58.2422 28.2422C53.3961 28.2422 49.4531 24.2992 49.4531 19.4531C49.4531 18.4815 48.6669 17.6953 47.6953 17.6953C46.7237 17.6953 45.9375 18.4815 45.9375 19.4531C45.9375 24.2992 41.9945 28.2422 37.1484 28.2422C36.1768 28.2422 35.3906 29.0284 35.3906 30C35.3906 30.9716 36.1768 31.7578 37.1484 31.7578C41.9945 31.7578 45.9375 35.7008 45.9375 40.5469C45.9375 41.5185 46.7237 42.3047 47.6953 42.3047C48.6669 42.3047 49.4531 41.5185 49.4531 40.5469C49.4531 35.7008 53.3961 31.7578 58.2422 31.7578C59.2138 31.7578 60 30.9716 60 30C60 29.0284 59.2138 28.2422 58.2422 28.2422Z" fill="#000D51"/>
<path d="M40.5469 45.9375C35.7008 45.9375 31.7578 41.9945 31.7578 37.1484C31.7578 36.1768 30.9716 35.3906 30 35.3906C29.0284 35.3906 28.2422 36.1768 28.2422 37.1484C28.2422 41.9945 24.2992 45.9375 19.4531 45.9375C18.4815 45.9375 17.6953 46.7237 17.6953 47.6953C17.6953 48.6669 18.4815 49.4531 19.4531 49.4531C24.2992 49.4531 28.2422 53.3961 28.2422 58.2422C28.2422 59.2138 29.0284 60 30 60C30.9716 60 31.7578 59.2138 31.7578 58.2422C31.7578 53.3961 35.7008 49.4531 40.5469 49.4531C41.5185 49.4531 42.3047 48.6669 42.3047 47.6953C42.3047 46.7237 41.5185 45.9375 40.5469 45.9375Z" fill="#000D51"/>
</g>
<defs>
<clipPath id="clip0_4006_9">
<rect width="60" height="60" fill="white"/>
</clipPath>
</defs>
</svg>
