<svg width="60" height="60" viewBox="0 0 60 60" fill="none" xmlns="http://www.w3.org/2000/svg">
<path d="M52.2 22.02H37.98V7.8C37.98 6.78 38.76 6 39.78 6H52.2C53.22 6 54 6.78 54 7.8V20.22C54 21.18 53.22 22.02 52.2 22.02Z" fill="#000D51"/>
<path d="M37.98 37.98H22.02V23.82C22.02 22.8 22.8 22.02 23.82 22.02H38.04V37.98H37.98Z" fill="#000D51"/>
<path d="M20.22 54H7.8C6.78 54 6 53.22 6 52.2V39.78C6 38.76 6.78 37.98 7.8 37.98H22.02V52.2C22.02 53.22 21.18 54 20.22 54Z" fill="#000D51"/>
<path d="M7.8 6H19.32C20.34 6 20.82 7.2 20.1 7.92L7.92 20.1C7.2 20.82 6 20.28 6 19.32V7.8C6 6.78 6.78 6 7.8 6Z" fill="#000D51"/>
<path d="M52.2 54H39.78C38.76 54 37.98 53.22 37.98 52.2V37.98H52.2C53.22 37.98 54 38.76 54 39.78V52.2C54 53.22 53.22 54 52.2 54Z" fill="#000D51"/>
</svg>
