<svg width="60" height="60" viewBox="0 0 60 60" fill="none" xmlns="http://www.w3.org/2000/svg">
<g clip-path="url(#clip0_4006_170)">
<path d="M25.6642 25.4077C23.3669 24.3532 20.8207 23.7502 18.1252 23.7502C8.11494 23.7502 0 31.8652 0 41.8748C0 51.8851 8.11494 60 18.1252 60C20.8207 60 23.3663 59.3971 25.6642 58.3425C21.4012 54.1455 18.75 48.3158 18.75 41.8748C18.75 35.4346 21.4012 29.6048 25.6642 25.4077Z" fill="#000D51"/>
<path d="M58.3425 34.3335C54.1455 38.5987 48.3158 41.2501 41.8748 41.2501C35.4346 41.2501 29.6048 38.5988 25.4077 34.3335C24.3532 36.633 23.7502 39.1792 23.7502 41.8748C23.7502 51.8851 31.8652 60 41.8748 60C51.8851 60 60 51.8851 60 41.8748C60 39.1793 59.3971 36.6337 58.3425 34.3335Z" fill="#000D51"/>
<path d="M41.8748 0C39.1793 0 36.6337 0.60293 34.3335 1.65747C38.5987 5.85439 41.2501 11.6842 41.2501 18.1252C41.2501 24.5654 38.5988 30.3952 34.3335 34.5923C36.633 35.6468 39.1792 36.2498 41.8748 36.2498C51.8851 36.2498 60 28.1348 60 18.1252C60 8.11494 51.8851 0 41.8748 0Z" fill="#000D51"/>
<path d="M18.1252 0C8.11494 0 0 8.11494 0 18.1252C0 20.8207 0.60293 23.3663 1.65747 25.6642C5.85454 21.4012 11.6842 18.75 18.1252 18.75C24.5654 18.75 30.3952 21.4012 34.5923 25.6642C35.6468 23.3669 36.2498 20.8207 36.2498 18.1252C36.2498 8.11494 28.1348 0 18.1252 0Z" fill="#000D51"/>
</g>
<defs>
<clipPath id="clip0_4006_170">
<rect width="60" height="60" fill="white"/>
</clipPath>
</defs>
</svg>
