<svg width="60" height="60" viewBox="0 0 60 60" fill="none" xmlns="http://www.w3.org/2000/svg">
<path d="M7.8 6H26.22C27.24 6 28.02 6.78 28.02 7.8V26.22C28.02 27.24 27.24 28.02 26.22 28.02H7.8C6.78 28.02 6 27.24 6 26.22V7.8C6 6.78 6.78 6 7.8 6Z" fill="#000D51"/>
<path d="M49.98 31.98H36C33.78 31.98 31.98 33.78 31.98 36V49.98C31.98 52.2 33.78 54 36 54H49.98C52.2 54 54 52.2 54 49.98V36C54 33.78 52.2 31.98 49.98 31.98Z" fill="#000D51"/>
<path d="M54 16.98C54 23.04 49.08 27.96 43.02 27.96C36.96 27.96 32.04 23.04 32.04 16.98C32.04 10.92 36.96 6 43.02 6C49.08 6 54 10.92 54 16.98Z" fill="#000D51"/>
<path d="M16.44 34.9201L7.43996 51.3601C6.77996 52.5601 7.67996 54.0001 8.99996 54.0001H26.94C28.32 54.0001 29.16 52.5601 28.5 51.3601L19.56 34.9201C18.9 33.6601 17.1 33.6601 16.44 34.9201Z" fill="#000D51"/>
</svg>
