<svg width="60" height="60" viewBox="0 0 60 60" fill="none" xmlns="http://www.w3.org/2000/svg">
<g clip-path="url(#clip0_4006_107)">
<path d="M42.0473 42.2186C35.4121 40.3431 28.3635 40.0498 21.5898 41.3566C21.4554 41.907 21.3123 42.4555 21.1581 43.001C20.0196 47.0291 18.343 50.8882 16.1938 54.4724C20.471 52.5153 25.1562 51.4833 30.0004 51.4833C38.2819 51.4833 46.1009 54.4949 52.2062 59.9998L59.9428 52.2632C54.8457 47.5562 48.6937 44.0971 42.0473 42.2186Z" fill="#000D51"/>
<path d="M37.6611 37.6625C36.8409 32.5922 36.8438 27.4033 37.6621 22.3399C35.1298 22.7494 32.5678 22.954 30.0069 22.954C27.4395 22.954 24.8734 22.7471 22.3385 22.3374C23.1586 27.4081 23.156 32.5976 22.3374 37.6615C27.408 36.8412 32.5973 36.844 37.6611 37.6625Z" fill="#000D51"/>
<path d="M18.6436 21.5904C18.0931 21.456 17.5447 21.312 16.999 21.1579C12.9709 20.0194 9.11179 18.3427 5.52742 16.1936C7.48451 20.4708 8.5165 25.1559 8.5165 30.0001C8.5165 38.2818 5.50497 46.1006 0 52.2059L7.73666 59.9426C12.4438 54.8454 15.9029 48.6935 17.7815 42.0471C19.6568 35.4122 19.9502 28.3637 18.6436 21.5904Z" fill="#000D51"/>
<path d="M41.3573 38.4105C41.9077 38.5449 42.4562 38.688 43.0017 38.8422C47.0298 39.9807 50.8888 41.6574 54.4732 43.8065C52.5161 39.5293 51.4841 34.844 51.4841 30C51.4841 21.7183 54.4957 13.8994 60.0006 7.79416L52.264 0.0576172C47.5569 5.15477 44.0978 11.3067 42.2191 17.9531C40.3438 24.5882 40.0506 31.637 41.3573 38.4105Z" fill="#000D51"/>
<path d="M17.9527 17.7815C24.5879 19.657 31.6365 19.9503 38.4101 18.6434C38.5445 18.0931 38.6877 17.5446 38.8418 16.9991C39.9804 12.9709 41.657 9.11179 43.8061 5.52754C39.5289 7.48451 34.8437 8.5165 29.9995 8.5165C21.7178 8.5165 13.899 5.50497 7.79367 0L0.0571289 7.73666C5.15416 12.4438 11.3061 15.9029 17.9527 17.7815Z" fill="#000D51"/>
</g>
<defs>
<clipPath id="clip0_4006_107">
<rect width="60" height="60" fill="white"/>
</clipPath>
</defs>
</svg>
