<svg width="60" height="60" viewBox="0 0 60 60" fill="none" xmlns="http://www.w3.org/2000/svg">
<path d="M25.9998 31.9998L34.0002 31.998C41.9826 31.998 48.8514 27.309 52.0608 20.547C51.3678 18.93 50.4864 17.4162 49.4712 16.0056C47.6838 22.8906 41.436 27.9978 34.0002 27.9978L25.9998 28.0002C18.5292 28.0002 11.748 30.9594 6.72058 35.7462C7.08238 37.2072 7.57018 38.6172 8.18338 39.9588C12.576 35.0844 18.9216 31.9998 25.9998 31.9998Z" fill="#000D51"/>
<path d="M53.6118 25.8047C49.2654 31.9643 42.1098 35.9999 34.0002 35.9999H25.9998C19.6152 35.9999 13.9434 39.0017 10.2816 43.6625C11.067 44.7935 11.9436 45.8555 12.9066 46.8341C15.8028 42.7091 20.5884 40.0001 25.9998 40.0001H34.0002C41.7876 40.0001 48.8364 36.7985 53.916 31.6481C53.9532 31.1015 54 30.5567 54 29.9999C54 28.5659 53.8518 27.1697 53.6118 25.8047Z" fill="#000D51"/>
<path d="M25.9998 19.9997C18.7632 19.9997 12.0336 22.1639 6.3828 25.8533C6.1464 27.2033 6 28.5821 6 29.9999C6 30.3437 6.0372 30.6797 6.0528 31.0193C11.5272 26.6369 18.4572 23.9999 25.9998 23.9999L34.0002 23.9981C40.5684 23.9981 45.9138 18.6911 45.9918 12.1403C44.7672 11.0423 43.4334 10.0661 42 9.23755V11.9963C42 16.4087 38.4126 19.9979 34.0002 19.9979L25.9998 19.9997Z" fill="#000D51"/>
<path d="M25.9998 15.9996L34.0002 15.9984C36.2052 15.9984 37.9998 14.2032 37.9998 11.9964V7.3944C35.4942 6.5076 32.811 6 30 6C20.2032 6 11.7888 11.8806 8.06104 20.2986C13.4628 17.5698 19.545 15.9996 25.9998 15.9996Z" fill="#000D51"/>
<path d="M34.0002 43.9997H25.9998C21.8046 43.9997 18.1116 46.1675 15.9648 49.4393C19.914 52.2965 24.7542 53.9999 30 53.9999C40.455 53.9999 49.3224 47.3045 52.6128 37.9763C47.3628 41.7521 40.9452 43.9997 34.0002 43.9997Z" fill="#000D51"/>
</svg>
