<svg width="582" height="582" viewBox="0 0 582 582" fill="none" xmlns="http://www.w3.org/2000/svg">
<path d="M252.198 310.398L329.802 310.381C407.231 310.381 473.859 264.897 504.99 199.306C498.268 183.621 489.718 168.937 479.871 155.254C462.533 222.039 401.929 271.579 329.802 271.579L252.198 271.602C179.733 271.602 113.956 300.306 65.1898 346.738C68.6993 360.91 73.4309 374.587 79.379 387.6C121.987 340.319 183.54 310.398 252.198 310.398Z" fill="#2460FD"/>
<path d="M520.034 250.307C477.874 310.055 408.465 349.2 329.802 349.2H252.198C190.267 349.2 135.251 378.318 99.7316 423.527C107.35 434.498 115.853 444.799 125.194 454.292C153.287 414.279 199.708 388.002 252.198 388.002H329.802C405.34 388.002 473.713 356.947 522.985 306.988C523.346 301.686 523.8 296.401 523.8 291C523.8 277.09 522.362 263.547 520.034 250.307Z" fill="#2460FD"/>
<path d="M252.198 193.998C182.003 193.998 116.726 214.991 61.9131 250.778C59.62 263.873 58.2 277.247 58.2 291C58.2 294.335 58.5608 297.594 58.7121 300.888C111.814 258.379 179.035 232.8 252.198 232.8L329.802 232.782C393.513 232.782 445.364 181.304 446.12 117.762C434.242 107.111 421.304 97.6419 407.4 89.6045V116.365C407.4 159.165 372.602 193.98 329.802 193.98L252.198 193.998Z" fill="#2460FD"/>
<path d="M252.198 155.196L329.802 155.185C351.19 155.185 368.598 137.771 368.598 116.365V71.7259C344.294 63.1239 318.267 58.2002 291 58.2002C195.971 58.2002 114.351 115.242 78.1917 196.897C130.589 170.427 189.586 155.196 252.198 155.196Z" fill="#2460FD"/>
<path d="M329.802 426.798H252.198C211.505 426.798 175.682 447.826 154.859 479.562C193.166 507.277 240.116 523.8 291 523.8C392.413 523.8 478.427 458.855 510.344 368.371C459.419 404.996 397.168 426.798 329.802 426.798Z" fill="#2460FD"/>
</svg>
