<svg width="595" height="556" viewBox="0 0 595 556" fill="none" xmlns="http://www.w3.org/2000/svg">
<g clip-path="url(#clip0_1_1750)">
<path d="M252.8 308.472C237.938 319.277 225.051 333.268 215.454 350.351C179.813 413.795 202.351 494.118 265.79 529.757C329.233 565.398 409.557 542.86 445.198 479.416C454.795 462.333 460.037 444.053 461.536 425.734C419.757 437.809 373.37 433.856 332.548 410.923C291.731 387.993 264.223 350.433 252.8 308.472Z" fill="#2460FD"/>
<path d="M425.719 133.142C437.808 174.928 433.856 221.315 410.923 262.137C387.993 302.954 350.433 330.463 308.457 341.877C319.276 356.747 333.267 369.634 350.351 379.232C413.795 414.873 494.118 392.335 529.757 328.896C565.398 265.452 542.86 185.128 479.416 149.487C462.333 139.89 444.053 134.648 425.719 133.142Z" fill="#2460FD"/>
<path d="M149.488 115.269C139.891 132.353 134.648 150.633 133.142 168.966C174.927 156.877 221.315 160.83 262.138 183.763C302.955 206.693 330.463 244.252 341.877 286.229C356.748 275.409 369.635 261.419 379.232 244.335C414.873 180.891 392.335 100.567 328.896 64.9287C265.453 29.2877 185.129 51.826 149.488 115.269Z" fill="#2460FD"/>
<path d="M64.9289 265.789C29.2878 329.233 51.8261 409.557 115.27 445.198C132.353 454.795 150.633 460.037 168.952 461.535C156.877 419.757 160.83 373.37 183.763 332.548C206.693 291.731 244.253 264.222 286.214 252.8C275.409 237.937 261.418 225.05 244.335 215.453C180.891 179.812 100.567 202.351 64.9289 265.789Z" fill="#2460FD"/>
</g>
<defs>
<clipPath id="clip0_1_1750">
<rect width="436.166" height="436.166" fill="white" transform="translate(0.39502 380.664) rotate(-60.6737)"/>
</clipPath>
</defs>
</svg>
