<svg width="60" height="60" viewBox="0 0 60 60" fill="none" xmlns="http://www.w3.org/2000/svg">
<path d="M22.02 9.77998C22.02 8.81998 22.8 7.97998 23.82 7.97998H52.2C53.22 7.97998 54 8.81998 54 9.77998V18.18C54 19.14 53.22 19.98 52.2 19.98H23.82C22.8 19.98 22.02 19.14 22.02 18.18V9.77998Z" fill="#000D51"/>
<path d="M12 19.98C15.3137 19.98 18 17.2937 18 13.98C18 10.6663 15.3137 7.97998 12 7.97998C8.68629 7.97998 6 10.6663 6 13.98C6 17.2937 8.68629 19.98 12 19.98Z" fill="#000D51"/>
<path d="M37.98 34.2C37.98 35.22 37.2 36 36.18 36H7.8C6.84 36 6 35.22 6 34.2V25.8C6 24.78 6.84 24 7.8 24H36.18C37.2 24 37.98 24.78 37.98 25.8V34.2Z" fill="#000D51"/>
<path d="M48 36C51.3137 36 54 33.3137 54 30C54 26.6863 51.3137 24 48 24C44.6863 24 42 26.6863 42 30C42 33.3137 44.6863 36 48 36Z" fill="#000D51"/>
<path d="M22.02 41.82C22.02 40.8 22.8 40.02 23.82 40.02H52.2C53.22 40.02 54 40.8 54 41.82V50.22C54 51.24 53.22 52.02 52.2 52.02H23.82C22.8 52.02 22.02 51.24 22.02 50.22V41.82Z" fill="#000D51"/>
<path d="M12 52.02C15.3137 52.02 18 49.3337 18 46.02C18 42.7063 15.3137 40.02 12 40.02C8.68629 40.02 6 42.7063 6 46.02C6 49.3337 8.68629 52.02 12 52.02Z" fill="#000D51"/>
</svg>
